<svg xmlns="http://www.w3.org/2000/svg" viewBox="0 0 640 480">
  <path fill="#bd3d44" d="M0 0h640v480H0z"/>
  <path fill="#fff" d="M0 37h640v37H0zM0 111h640v37H0zM0 185h640v37H0zM0 259h640v37H0zM0 333h640v37H0zM0 407h640v37H0z"/>
  <path fill="#192f5d" d="M0 0h257v259H0z"/>
  <g fill="#fff">
    <path d="M21 16l2 7h7l-6 4 2 7-5-4-5 4 2-7-6-4h7zm43 0l2 7h7l-6 4 2 7-5-4-5 4 2-7-6-4h7zm43 0l2 7h7l-6 4 2 7-5-4-5 4 2-7-6-4h7zm43 0l2 7h7l-6 4 2 7-5-4-5 4 2-7-6-4h7zm43 0l2 7h7l-6 4 2 7-5-4-5 4 2-7-6-4h7z"/>
    <path d="M21 81l2 7h7l-6 4 2 7-5-4-5 4 2-7-6-4h7zm43 0l2 7h7l-6 4 2 7-5-4-5 4 2-7-6-4h7zm43 0l2 7h7l-6 4 2 7-5-4-5 4 2-7-6-4h7zm43 0l2 7h7l-6 4 2 7-5-4-5 4 2-7-6-4h7zm43 0l2 7h7l-6 4 2 7-5-4-5 4 2-7-6-4h7z"/>
    <path d="M21 146l2 7h7l-6 4 2 7-5-4-5 4 2-7-6-4h7zm43 0l2 7h7l-6 4 2 7-5-4-5 4 2-7-6-4h7zm43 0l2 7h7l-6 4 2 7-5-4-5 4 2-7-6-4h7zm43 0l2 7h7l-6 4 2 7-5-4-5 4 2-7-6-4h7zm43 0l2 7h7l-6 4 2 7-5-4-5 4 2-7-6-4h7z"/>
    <path d="M21 211l2 7h7l-6 4 2 7-5-4-5 4 2-7-6-4h7zm43 0l2 7h7l-6 4 2 7-5-4-5 4 2-7-6-4h7zm43 0l2 7h7l-6 4 2 7-5-4-5 4 2-7-6-4h7zm43 0l2 7h7l-6 4 2 7-5-4-5 4 2-7-6-4h7zm43 0l2 7h7l-6 4 2 7-5-4-5 4 2-7-6-4h7z"/>
    <path d="M64 16l2 7h7l-6 4 2 7-5-4-5 4 2-7-6-4h7zm43 0l2 7h7l-6 4 2 7-5-4-5 4 2-7-6-4h7z"/>
    <path d="M107 81l2 7h7l-6 4 2 7-5-4-5 4 2-7-6-4h7zm43 0l2 7h7l-6 4 2 7-5-4-5 4 2-7-6-4h7z"/>
    <path d="M64 146l2 7h7l-6 4 2 7-5-4-5 4 2-7-6-4h7zm43 0l2 7h7l-6 4 2 7-5-4-5 4 2-7-6-4h7z"/>
    <path d="M107 211l2 7h7l-6 4 2 7-5-4-5 4 2-7-6-4h7zm43 0l2 7h7l-6 4 2 7-5-4-5 4 2-7-6-4h7z"/>
  </g>
</svg>
